<svg width="176" height="198" viewBox="0 0 176 198" xmlns="http://www.w3.org/2000/svg"><g fill="none" fill-rule="evenodd"><g fill-rule="nonzero"><path stroke="#C8C8C8" fill="#FFF" d="M15.5 19.5h25v25h-25z"/><path d="M35 23H21a2 2 0 00-2 2v14a2 2 0 002 2h14c1.1 0 2-.9 2-2V25c0-1.1-.9-2-2-2zm0 16H21V25h14v14zm-8-2h2v-4h4v-2h-4v-4h-2v4h-4v2h4v4z" fill="#026C9C"/></g><g fill-rule="nonzero"><path stroke="#C8C8C8" fill="#FFF" d="M3.5 65.5h49v25h-49z"/><path d="M23 69H9a2 2 0 00-2 2v14a2 2 0 002 2h14c1.1 0 2-.9 2-2V71c0-1.1-.9-2-2-2zm0 16H9V71h14v14zm-8-2h2v-4h4v-2h-4v-4h-2v4h-4v2h4v4z" fill="#026C9C"/></g><g fill-rule="nonzero"><path stroke="#C8C8C8" fill="#FFF" d="M63.5 65.5h49v25h-49z"/><path d="M95 69H81a2 2 0 00-2 2v14a2 2 0 002 2h14c1.1 0 2-.9 2-2V71c0-1.1-.9-2-2-2zm0 16H81V71h14v14zm-8-2h2v-4h4v-2h-4v-4h-2v4h-4v2h4v4z" fill="#026C9C"/></g><g fill-rule="nonzero"><path stroke="#C8C8C8" fill="#FFF" d="M123.5 65.5h49v25h-49z"/><path d="M167 69h-14a2 2 0 00-2 2v14a2 2 0 002 2h14c1.1 0 2-.9 2-2V71c0-1.1-.9-2-2-2zm0 16h-14V71h14v14zm-8-2h2v-4h4v-2h-4v-4h-2v4h-4v2h4v4z" fill="#026C9C"/></g><text font-family="ArialMT, Arial" font-size="12" fill="#000" transform="translate(4 66)"><tspan x="15.996" y="35">left</tspan></text><text font-family="ArialMT, Arial" font-size="12" fill="#000" transform="translate(4 66)"><tspan x="67.324" y="35">center</tspan></text><text font-family="ArialMT, Arial" font-size="12" fill="#000" transform="translate(4 66)"><tspan x="132.328" y="35">right</tspan></text><g><g fill-rule="nonzero"><path stroke="#C8C8C8" fill="#FFF" d="M15.5 129.5h25v49h-25z"/><path d="M35 133H21a2 2 0 00-2 2v14a2 2 0 002 2h14c1.1 0 2-.9 2-2v-14c0-1.1-.9-2-2-2zm0 16H21v-14h14v14zm-8-2h2v-4h4v-2h-4v-4h-2v4h-4v2h4v4z" fill="#026C9C"/></g><g fill-rule="nonzero"><path stroke="#C8C8C8" fill="#FFF" d="M75.5 129.5h25v49h-25z"/><path d="M95 145H81a2 2 0 00-2 2v14a2 2 0 002 2h14c1.1 0 2-.9 2-2v-14c0-1.1-.9-2-2-2zm0 16H81v-14h14v14zm-8-2h2v-4h4v-2h-4v-4h-2v4h-4v2h4v4z" fill="#026C9C"/></g><g fill-rule="nonzero"><path stroke="#C8C8C8" fill="#FFF" d="M135.5 129.5h25v49h-25z"/><path d="M155 157h-14a2 2 0 00-2 2v14a2 2 0 002 2h14c1.1 0 2-.9 2-2v-14c0-1.1-.9-2-2-2zm0 16h-14v-14h14v14zm-8-2h2v-4h4v-2h-4v-4h-2v4h-4v2h4v4z" fill="#026C9C"/></g><text font-family="ArialMT, Arial" font-size="12" fill="#000" transform="translate(4 130)"><tspan x="125.657" y="59">bottom</tspan></text><text font-family="ArialMT, Arial" font-size="12" fill="#000" transform="translate(4 130)"><tspan x="66.325" y="59">middle</tspan></text><text font-family="ArialMT, Arial" font-size="12" fill="#000" transform="translate(4 130)"><tspan x="15.659" y="59">top</tspan></text></g><text font-family="ArialMT, Arial" font-size="12" fill="#000"><tspan x="4" y="11">Normal icon:</tspan></text><text font-family="ArialMT, Arial" font-size="12" fill="#000"><tspan x="4" y="59">Wide icon:</tspan></text><text font-family="ArialMT, Arial" font-size="12" fill="#000"><tspan x="4" y="123">Tall icon:</tspan></text></g></svg>