<svg width="512" height="512" viewBox="0 0 512 512" fill="none" xmlns="http://www.w3.org/2000/svg">
<path fill-rule="evenodd" clip-rule="evenodd" d="M101.657 194.343C104.781 197.467 104.781 202.533 101.657 205.657L45.6569 261.657C42.5327 264.781 37.4673 264.781 34.3431 261.657C31.219 258.533 31.219 253.467 34.3431 250.343L90.3431 194.343C93.4673 191.219 98.5327 191.219 101.657 194.343Z" fill="#979797"/>
<path fill-rule="evenodd" clip-rule="evenodd" d="M34.3431 250.343C37.4673 247.219 42.5327 247.219 45.6569 250.343L101.657 306.343C104.781 309.467 104.781 314.533 101.657 317.657C98.5327 320.781 93.4673 320.781 90.3431 317.657L34.3431 261.657C31.219 258.533 31.219 253.467 34.3431 250.343Z" fill="#979797"/>
<path fill-rule="evenodd" clip-rule="evenodd" d="M410.343 194.343C413.467 191.219 418.533 191.219 421.657 194.343L477.657 250.343C480.781 253.467 480.781 258.533 477.657 261.657C474.533 264.781 469.467 264.781 466.343 261.657L410.343 205.657C407.219 202.533 407.219 197.467 410.343 194.343Z" fill="#979797"/>
<path fill-rule="evenodd" clip-rule="evenodd" d="M477.657 250.343C480.781 253.467 480.781 258.533 477.657 261.657L421.657 317.657C418.533 320.781 413.467 320.781 410.343 317.657C407.219 314.533 407.219 309.467 410.343 306.343L466.343 250.343C469.467 247.219 474.533 247.219 477.657 250.343Z" fill="#979797"/>
<path fill-rule="evenodd" clip-rule="evenodd" d="M256 144C194.144 144 144 194.144 144 256C144 317.856 194.144 368 256 368C317.856 368 368 317.856 368 256C368 194.144 317.856 144 256 144Z" fill="white"/>
<path fill-rule="evenodd" clip-rule="evenodd" d="M256 144C194.144 144 144 194.144 144 256C144 317.856 194.144 368 256 368C317.856 368 368 317.856 368 256C368 194.144 317.856 144 256 144ZM128 256C128 185.308 185.308 128 256 128C326.692 128 384 185.308 384 256C384 326.692 326.692 384 256 384C185.308 384 128 326.692 128 256Z" fill="#307594"/>
<path d="M224 220C224 213.373 218.627 208 212 208C205.373 208 200 213.373 200 220V236C200 242.627 205.373 248 212 248C218.627 248 224 242.627 224 236V220Z" fill="#307594"/>
<path d="M312 220C312 213.373 306.627 208 300 208C293.373 208 288 213.373 288 220V236C288 242.627 293.373 248 300 248C306.627 248 312 242.627 312 236V220Z" fill="#307594"/>
<path fill-rule="evenodd" clip-rule="evenodd" d="M253.865 336C294.759 336 331.927 297.93 327.666 289.519C323.384 281.067 302.937 310.646 253.865 310.646C204.793 310.646 188.435 281.067 184.346 289.519C180.256 297.97 212.971 336 253.865 336Z" fill="#307594"/>
</svg>
