<svg width="32" height="32" viewBox="0 0 32 32" xmlns="http://www.w3.org/2000/svg">
<path d="M16 31C24.2843 31 31 24.2843 31 16C31 7.71573 24.2843 1 16 1C7.71573 1 1 7.71573 1 16C1 24.2843 7.71573 31 16 31Z" fill="white" stroke="#307594" stroke-width="2"/>
<path d="M12 11.5C12 10.6716 11.3284 10 10.5 10C9.67157 10 9 10.6716 9 11.5V13.5C9 14.3284 9.67157 15 10.5 15C11.3284 15 12 14.3284 12 13.5V11.5Z" fill="#307594"/>
<path d="M23 11.5C23 10.6716 22.3284 10 21.5 10C20.6716 10 20 10.6716 20 11.5V13.5C20 14.3284 20.6716 15 21.5 15C22.3284 15 23 14.3284 23 13.5V11.5Z" fill="#307594"/>
<path fill-rule="evenodd" clip-rule="evenodd" d="M16 26C21 26 25.5446 21.4953 25.0235 20.5C24.5 19.5 22 23 16 23C10 23 8 19.5 7.50001 20.5C7.00001 21.5 11 26 16 26Z" fill="#307594"/>
</svg>
