<svg xmlns="http://www.w3.org/2000/svg" width="2048" height="2048" viewBox="0 0 2048 2048">
  <defs>


  </defs>


  <g id="layer1" transform="translate(0,995.63783)">
    <g transform="matrix(96.752895,0,0,96.752895,55.328158,-100816.34)" id="layer1-6" display="inline">
      <path d="m 3.4296875,1038.3672 1.3325877,12.7308 10.5912408,0 1.228186,-12.7284 -13.1520736,0 z m 1.4921875,1.3437 10.185547,0 -0.972656,10.0411 -8.1582035,0 z" id="rect4089" color="#000000" display="inline" visibility="visible" opacity="1" color-interpolation="sRGB" fill="#000000" fill-opacity="1" fill-rule="nonzero" stroke="none" stroke-width="1.343629" stroke-linecap="round" stroke-linejoin="miter" stroke-miterlimit="4" stroke-dasharray="none" stroke-dashoffset="0" stroke-opacity="1" color-rendering="auto"/>
      <g id="g4275" transform="matrix(1,0,0,0.90111263,0,103.41515)">
        <path id="path4092" d="m 7.0333918,1040.9794 0.9432241,7.504" fill="none" stroke="#000000" stroke-width="1.343629" stroke-linecap="round" stroke-linejoin="miter" stroke-miterlimit="4" stroke-opacity="1" stroke-dasharray="none"/>
        <path id="path4092-2" d="m 12.990235,1040.9794 -0.943224,7.504" fill="none" stroke="#000000" stroke-width="1.343629" stroke-linecap="round" stroke-linejoin="miter" stroke-miterlimit="4" stroke-opacity="1" stroke-dasharray="none"/>
      </g>
      <path d="m 7.2638322,1035.194 -4.2854023,1.2542 0,0.6276 14.0667651,0 0,-0.6276 -4.337726,-1.2542 z" id="rect4121" fill="#000000" fill-opacity="1" stroke="none"/>
      <path d="m 7.6269598,1033.8929 4.7697062,0 0,1.737 -4.7697062,0 z" id="rect4121-6" display="inline" fill="#000000" fill-opacity="1" stroke="#000000" stroke-width="0.72291225" stroke-linecap="round" stroke-linejoin="round" stroke-miterlimit="4" stroke-dasharray="none" stroke-dashoffset="0" stroke-opacity="1"/>
    </g>
  </g>
</svg>