<svg width="176" height="198" viewBox="0 0 176 198" xmlns="http://www.w3.org/2000/svg"><g fill="none" fill-rule="evenodd"><g fill-rule="nonzero"><path stroke="#C8C8C8" fill="#FFF" d="M15.5 19.5h25v25h-25z"/><path d="M35 23H21a2 2 0 00-2 2v14a2 2 0 002 2h14c1.1 0 2-.9 2-2V25c0-1.1-.9-2-2-2zm0 16H21V25h14v14zm-8-2h2v-4h4v-2h-4v-4h-2v4h-4v2h4v4z" fill="#026C9C"/></g><g fill-rule="nonzero"><path stroke="#C8C8C8" fill="#FFF" d="M3.5 65.5h49v25h-49z"/><path d="M42 72c2.2 0 4 1.8 4 4v14h-4V76H14v14h-4V76a4 4 0 013.8-3.995L14 72zm-12 8v8h8v2H18v-2h8v-8h4z" fill="#026C9C"/></g><g fill-rule="nonzero"><path stroke="#C8C8C8" fill="#FFF" d="M63.5 65.5h49v25h-49z"/><path d="M74 66v24h-4V66h4zm32 0v24h-4V66h4zm-16 2v8h8v4h-8v8h-4v-8h-8v-4h8v-8h4z" fill="#026C9C"/></g><g fill-rule="nonzero"><path stroke="#C8C8C8" fill="#FFF" d="M123.5 65.5h49v25h-49z"/><path d="M166 66v14c0 2.2-1.8 4-4 4h-28a4 4 0 01-4-4V66h4v14h28V66h4zm-8 0v2h-8v8h-4v-8h-8v-2h20z" fill="#026C9C"/></g><text font-family="ArialMT, Arial" font-size="12" fill="#000" transform="translate(4 66)"><tspan x="15.659" y="35">top</tspan></text><text font-family="ArialMT, Arial" font-size="12" fill="#000" transform="translate(4 66)"><tspan x="66.325" y="35">middle</tspan></text><text font-family="ArialMT, Arial" font-size="12" fill="#000" transform="translate(4 66)"><tspan x="125.657" y="35">bottom</tspan></text><g><g fill-rule="nonzero"><path stroke="#C8C8C8" fill="#FFF" d="M15.5 129.5h25v49h-25z"/><path d="M40 136v4H26v28h14v4H26a4 4 0 01-3.995-3.8L22 168v-28a4 4 0 014-4h14zm0 8v20h-2v-8h-8v-4h8v-8h2z" fill="#026C9C"/></g><g fill-rule="nonzero"><path stroke="#C8C8C8" fill="#FFF" d="M75.5 129.5h25v49h-25z"/><path d="M100 168v4H76v-4h24zm-10-24v8h8v4h-8v8h-4v-8h-8v-4h8v-8h4zm10-8v4H76v-4h24z" fill="#026C9C"/></g><g fill-rule="nonzero"><path stroke="#C8C8C8" fill="#FFF" d="M135.5 129.5h25v49h-25z"/><path d="M150 136c2.2 0 4 1.8 4 4v28c0 2.2-1.8 4-4 4h-14v-4h14v-28h-14v-4zm-12 8v8h8v4h-8v8h-2v-20h2z" fill="#026C9C"/></g><text font-family="ArialMT, Arial" font-size="12" fill="#000" transform="translate(4 130)"><tspan x="132.328" y="59">right</tspan></text><text font-family="ArialMT, Arial" font-size="12" fill="#000" transform="translate(4 130)"><tspan x="67.324" y="59">center</tspan></text><text font-family="ArialMT, Arial" font-size="12" fill="#000" transform="translate(4 130)"><tspan x="15.996" y="59">left</tspan></text></g><text font-family="ArialMT, Arial" font-size="12" fill="#000"><tspan x="4" y="11">Normal icon:</tspan></text><text font-family="ArialMT, Arial" font-size="12" fill="#000"><tspan x="4" y="59">Wide icon:</tspan></text><text font-family="Helvetica" font-size="12" fill="#000"><tspan x="4" y="123">Tall icon:</tspan></text></g></svg>