<svg width="116" height="198" viewBox="0 0 116 198" xmlns="http://www.w3.org/2000/svg"><g fill="none" fill-rule="evenodd"><g fill-rule="nonzero"><path stroke="#C8C8C8" fill="#FFF" d="M15.5 19.5h25v25h-25z"/><path d="M35 23H21a2 2 0 00-2 2v14a2 2 0 002 2h14c1.1 0 2-.9 2-2V25c0-1.1-.9-2-2-2zm0 16H21V25h14v14zm-8-2h2v-4h4v-2h-4v-4h-2v4h-4v2h4v4z" fill="#026C9C"/></g><g fill-rule="nonzero"><path stroke="#C8C8C8" fill="#FFF" d="M3.5 65.5h49v25h-49z"/><path d="M42 69H14c-2.21 0-4 .895-4 2v14c0 1.105 1.79 2 4 2h28c2.2 0 4-.9 4-2V71c0-1.1-1.8-2-4-2zm0 16H14V71h28v14zm-16-2h4v-4h8v-2h-8v-4h-4v4h-8v2h8v4z" fill="#026C9C"/></g><g fill-rule="nonzero"><path stroke="#C8C8C8" fill="#FFF" d="M63.5 65.5h49v25h-49z"/><path d="M95 69H81a2 2 0 00-2 2v14a2 2 0 002 2h14c1.1 0 2-.9 2-2V71c0-1.1-.9-2-2-2zm0 16H81V71h14v14zm-8-2h2v-4h4v-2h-4v-4h-2v4h-4v2h4v4z" fill="#026C9C"/></g><text font-family="ArialMT, Arial" font-size="12" fill="#000" transform="translate(4 66)"><tspan x="7.658" y="35">image</tspan></text><text font-family="ArialMT, Arial" font-size="12" fill="#000" transform="translate(4 66)"><tspan x="71.329" y="35">SVG</tspan></text><g fill-rule="nonzero"><path stroke="#C8C8C8" fill="#FFF" d="M15.5 129.5h25v49h-25z"/><path d="M35 136H21c-1.105 0-2 1.79-2 4v28c0 2.21.895 4 2 4h14c1.1 0 2-1.8 2-4v-28c0-2.2-.9-4-2-4zm0 32H21v-28h14v28zm-8-4h2v-8h4v-4h-4v-8h-2v8h-4v4h4v8z" fill="#026C9C"/></g><g fill-rule="nonzero"><path stroke="#C8C8C8" fill="#FFF" d="M75.5 129.5h25v49h-25z"/><path d="M95 145H81a2 2 0 00-2 2v14a2 2 0 002 2h14c1.1 0 2-.9 2-2v-14c0-1.1-.9-2-2-2zm0 16H81v-14h14v14zm-8-2h2v-4h4v-2h-4v-4h-2v4h-4v2h4v4z" fill="#026C9C"/></g><text font-family="ArialMT, Arial" font-size="12" fill="#000" transform="translate(4 130)"><tspan x="71.329" y="59">SVG</tspan></text><text font-family="ArialMT, Arial" font-size="12" fill="#000" transform="translate(4 130)"><tspan x="7.658" y="59">image</tspan></text><text font-family="ArialMT, Arial" font-size="12" fill="#000"><tspan x="4" y="11">Normal icon:</tspan></text><text font-family="ArialMT, Arial" font-size="12" fill="#000"><tspan x="4" y="59">Wide icon:</tspan></text><text font-family="ArialMT, Arial" font-size="12" fill="#000"><tspan x="4" y="123">Tall icon:</tspan></text></g></svg>