<svg xmlns="http://www.w3.org/2000/svg" width="332" height="160" fill="none"><path fill="#000" fill-rule="evenodd" d="M39.83 103.5a6.5 6.5 0 1 1-12.999 0 6.5 6.5 0 0 1 13 0Zm-29.662 11.917a2.167 2.167 0 0 0-2.09 2.737l2.503 9.179c0 1.197.97 2.167 2.167 2.167H30.08a2.167 2.167 0 0 0 0-4.333h-4.924l-2.224-8.154a2.167 2.167 0 0 0-2.09-1.596H10.168Zm5.23 17.547h14.685a5.631 5.631 0 1 0 0-11.262h-2.278l-1.527-5.601a5.828 5.828 0 0 0-.063-.215 8.67 8.67 0 0 1 15.415 2.437c-1.75.617-3.096 2.268-3.096 4.363v5.76c0 2.217.768 4.368 2.07 6.107v.04a3.448 3.448 0 0 1-1.856.538h-8.93l-6.563 10.312a3.465 3.465 0 0 1-4.782 1.064l.116-.182a3.25 3.25 0 0 1-.997-4.487l3.068-4.652a1.351 1.351 0 1 0-2.256-1.489l-3.097 4.687a5.955 5.955 0 0 0-.315 5.84 3.466 3.466 0 0 1-5.167-4.501l5.574-8.759Zm39.535-4.518c0 1.776-.517 3.299-1.552 4.314l4.657 6.597c.776 1.269 1.293 2.792 1.293 4.314v.254c0 2.791-2.328 5.075-5.174 5.075h-1.606a2.32 2.32 0 0 1-.802.143H39.832a2.31 2.31 0 1 1 0-4.62h4.236v-11.256c-1.294-1.269-2.07-3.045-2.07-4.821v-5.76c0-.855.896-1.413 1.663-1.037l3.511 1.722h2.587l3.51-1.722a1.155 1.155 0 0 1 1.664 1.037v5.76ZM118.694 97.438a2.166 2.166 0 0 1 2.612 0l22.99 17.372c.081.061.158.128.229.2.563.565 1.475 1.727 1.475 3.223v26.482c0 2.597-2.158 4.285-4.276 4.285H98.276c-2.61 0-4.276-2.182-4.276-4.285v-26.482c0-1.496.912-2.658 1.475-3.223.072-.072.148-.139.23-.2l22.989-17.372Zm8.888 29.895a6.5 6.5 0 1 0 0-13 6.5 6.5 0 0 0 0 13Zm-.207 16.251-.304-.914-3.741-11.22a10.818 10.818 0 0 1 4.253-.866c5.983 0 10.834 4.85 10.834 10.833 0 1.197-.97 2.167-2.167 2.167h-8.875Zm-23.67-13a2.309 2.309 0 0 0-2.191 3.04l3.319 9.96h19.501l-3.807-11.421a2.31 2.31 0 0 0-2.192-1.579h-14.63Z" clip-rule="evenodd"/><path fill="#000" d="m121.306 97.438 1.393-1.843-1.393 1.843Zm-2.612 0-1.393-1.843 1.393 1.843Zm25.602 17.372 1.392-1.843-1.392 1.843Zm.229.2-1.637 1.63 1.637-1.63Zm-49.05 0 1.637 1.63-1.637-1.63Zm.23-.2 1.392 1.843-1.393-1.843Zm31.366 27.86 2.191-.73-2.191.73Zm.304.914-2.191.73a2.31 2.31 0 0 0 2.191 1.58v-2.31Zm-4.045-12.134-.907-2.124a2.31 2.31 0 0 0-1.284 2.855l2.191-.731Zm-21.816 2.174-2.192.73 2.192-.73Zm3.319 9.96-2.191.73a2.31 2.31 0 0 0 2.191 1.579v-2.309Zm19.501 0v2.309a2.31 2.31 0 0 0 2.191-3.04l-2.191.731Zm-3.807-11.421 2.191-.73-2.191.73Zm2.172-36.568a4.477 4.477 0 0 0-5.398 0l2.785 3.686a.142.142 0 0 1-.172 0l2.785-3.686Zm22.989 17.372-22.989-17.372-2.785 3.686 22.989 17.372 2.785-3.686Zm.474.413a4.438 4.438 0 0 0-.474-.413l-2.785 3.686-.015-.013 3.274-3.26Zm2.148 4.853c0-2.416-1.437-4.139-2.148-4.853l-3.274 3.26c.174.174.391.432.557.737.163.299.245.585.245.856h4.62Zm0 26.482v-26.482h-4.62v26.482h4.62Zm-6.586 6.595c3.228 0 6.586-2.563 6.586-6.595h-4.62c0 1.163-.959 1.975-1.966 1.975v4.62Zm-43.448 0h43.448v-4.62H98.276v4.62Zm-6.586-6.595c0 3.191 2.52 6.595 6.586 6.595v-4.62c-1.154 0-1.966-.96-1.966-1.975h-4.62Zm0-26.482v26.482h4.62v-26.482h-4.62Zm2.148-4.853c-.71.714-2.148 2.437-2.148 4.853h4.62c0-.271.082-.557.245-.856.166-.305.383-.563.557-.737l-3.274-3.26Zm.474-.413a4.494 4.494 0 0 0-.474.413l3.274 3.26-.015.013-2.785-3.686ZM117.3 95.595l-22.99 17.372 2.786 3.686 22.989-17.372-2.785-3.686Zm14.471 25.238a4.19 4.19 0 0 1-4.19 4.191v4.619a8.81 8.81 0 0 0 8.81-8.81h-4.62Zm-4.19-4.19a4.19 4.19 0 0 1 4.19 4.19h4.62a8.81 8.81 0 0 0-8.81-8.809v4.619Zm-4.19 4.19a4.19 4.19 0 0 1 4.19-4.19v-4.619a8.81 8.81 0 0 0-8.81 8.809h4.62Zm4.19 4.191a4.19 4.19 0 0 1-4.19-4.191h-4.62a8.81 8.81 0 0 0 8.81 8.81v-4.619Zm-2.703 18.377.305.913 4.382-1.461-.304-.913-4.383 1.461Zm-3.74-11.22 3.74 11.22 4.383-1.461-3.74-11.22-4.383 1.461Zm6.444-3.907a13.11 13.11 0 0 0-5.16 1.052l1.815 4.248a8.496 8.496 0 0 1 3.345-.68v-4.62Zm13.144 13.143c0-7.259-5.885-13.143-13.144-13.143v4.62a8.523 8.523 0 0 1 8.524 8.523h4.62Zm-4.477 4.477a4.478 4.478 0 0 0 4.477-4.477h-4.62c0-.079.064-.143.143-.143v4.62Zm-8.875 0h8.875v-4.62h-8.875v4.62Zm-23.67-13.001v-4.619c-3.153 0-5.38 3.089-4.383 6.08l4.383-1.461Zm3.32 9.96-3.32-9.96-4.383 1.461 3.32 9.96 4.383-1.461Zm17.309-1.579h-19.501v4.619h19.501v-4.619Zm-5.999-8.381 3.807 11.421 4.383-1.461-3.807-11.42-4.383 1.46Zm0 0 4.383-1.46a4.62 4.62 0 0 0-4.383-3.159v4.619Zm-14.63 0h14.63v-4.619h-14.63v4.619Z"/><path stroke="#000" stroke-linecap="round" stroke-linejoin="round" stroke-width="2.16" d="m35.906 43.91-11.96 2.153 1.994-12.12L48.783 11.18a3.986 3.986 0 0 1 5.661 0l4.226 4.226a3.988 3.988 0 0 1 0 5.661L35.906 43.91Z"/><path stroke="#000" stroke-linecap="round" stroke-linejoin="round" stroke-width="2.16" d="M53.847 45.903v11.96a3.987 3.987 0 0 1-3.987 3.987H11.987A3.986 3.986 0 0 1 8 57.863V19.99a3.987 3.987 0 0 1 3.987-3.987h11.96M104.351 62.693c5.505 0 9.967-4.462 9.967-9.967 0-5.504-4.462-9.967-9.967-9.967-5.504 0-9.966 4.463-9.966 9.967 0 5.505 4.462 9.967 9.966 9.967Z"/><path stroke="#000" stroke-linecap="round" stroke-linejoin="round" stroke-width="2.16" d="M114.318 20.833v-5.98a3.985 3.985 0 0 0-3.987-3.987h-4.704a3.989 3.989 0 0 0-3.987 3.23l-7.056 36.637M110.331 30.8h19.933M114.317 40.766v11.96M136.245 62.693c5.504 0 9.967-4.462 9.967-9.967 0-5.504-4.463-9.967-9.967-9.967-5.504 0-9.967 4.463-9.967 9.967 0 5.505 4.463 9.967 9.967 9.967Z"/><path stroke="#000" stroke-linecap="round" stroke-linejoin="round" stroke-width="2.16" d="M126.278 20.833v-5.98a3.985 3.985 0 0 1 3.987-3.987h4.704a3.985 3.985 0 0 1 3.987 3.23l7.136 36.637M126.278 40.766v11.96M182.411 58.08l-1.634-27.907a1.99 1.99 0 0 1 1.171-2.062c.259-.114.539-.173.822-.17h18.379a2.031 2.031 0 0 1 1.953 1.514l1.595 6.459h25.913a1.995 1.995 0 0 1 1.994 2.152L231.049 58a3.986 3.986 0 0 1-3.987 3.668h-40.664a3.986 3.986 0 0 1-3.987-3.588ZM192.735 19.967v-7.974A1.993 1.993 0 0 1 194.729 10h33.886a1.994 1.994 0 0 1 1.994 1.993V27.94M208.686 19.967h11.96M287.095 61.827l-2.332-1.555a23.9 23.9 0 0 1-6.196-6l-5.322-7.45a4.926 4.926 0 0 1 .068-5.82c1.932-2.577 5.777-2.637 7.789-.122l4 5c1.993 0 6.777.797 9.966 3.987"/><path stroke="#000" stroke-linecap="round" stroke-linejoin="round" stroke-width="2.16" d="M285.1 45.88V20.963a4.983 4.983 0 0 1 9.967 0v14.95-20.93a4.983 4.983 0 1 1 9.967 0v22.924V24.95a4.983 4.983 0 1 1 9.966 0v29.588c0 2.114-.84 4.142-2.335 5.638l-1.651 1.65"/><path fill="#000" stroke="#000" d="M192.427 142.978c7.58 4.849 17.879 2.591 25.846-4.129 9.196-7.757 15.937-21.753 13.922-39.771m-39.768 43.9.275-.418-.003-.002m-.272.42a1.08 1.08 0 0 0-1.151-.02 81.376 81.376 0 0 1-10.99 5.799 3.086 3.086 0 0 1-2.402-5.684c2.829-1.19 5.937-2.81 9.014-4.665m5.529 4.57.27-.421.002.001m0 0c7.325 4.685 17.379 2.55 25.251-4.091 9.062-7.643 15.745-21.471 13.748-39.333m-38.999 43.424a1.581 1.581 0 0 0-1.683-.028l-.007.004a80.633 80.633 0 0 1-10.92 5.763 2.582 2.582 0 0 1-3.385-1.376 2.585 2.585 0 0 1 1.374-3.387c2.98-1.254 6.257-2.976 9.48-4.942m44.14-39.458.497-.056m-.497.056a1.556 1.556 0 0 0-1.376-1.37l-.445-.048v-.002m1.821 1.42.497-.056m0 0a2.058 2.058 0 0 0-1.818-1.81l-.5.446m0 0c.148.015.297.03.445.047l.054-.493.001-.004m-.5.45v-.45h.5m-.5.45a43.519 43.519 0 0 0-9.069.047l-.055-.497a44.024 44.024 0 0 1 9.624 0m-.5.45.5-.45m-43.479 41.144-2.231-5.953a.473.473 0 0 0 .698.221c4.361-2.658 8.329-5.576 11.019-8.213v-.001a3.071 3.071 0 0 1 4.766 3.798h-.001a1.323 1.323 0 0 1-.209.262c-1.954 1.896-4.428 3.947-7.236 5.981a91.069 91.069 0 0 1-2.373 1.662l-.006.004a89.6 89.6 0 0 1-3.588 2.248.521.521 0 0 1-.179.175m-.66-.184a.614.614 0 0 0 .071.082l.272-.29m.317.392.005-.003-.031-.051.191-.695a.45.45 0 0 1 .073.184.48.48 0 0 1-.106.388l-.017.019a.503.503 0 0 1-.099.08l-.043.023-.11-.182-.118-.193.166.322.033.065-.008.003.008-.003.03.057.026-.014ZM301.825 105.155l.028.004h.001c2.799.359 4.708 2.78 4.985 5.428.032.305.063.611.093.916l.044.452h5.645c1.679 0 3.21.795 4.427 1.697a17.468 17.468 0 0 1 3.399 3.487l.004.005a21.544 21.544 0 0 1 2.482 4.213c.612 1.395 1.067 2.928 1.067 4.342v10.836a6.016 6.016 0 0 1-4.992 5.926c-.163-2.152-.907-4.285-2.57-5.944-1.9-1.904-4.419-2.605-6.882-2.605-2.459 0-4.978.701-6.881 2.605h-.001c-1.671 1.675-2.42 3.83-2.572 6.001h-5.439c-.152-2.171-.901-4.326-2.572-6.001-1.903-1.904-4.422-2.605-6.881-2.605-2.463 0-4.982.701-6.881 2.604-1.074 1.071-1.768 2.343-2.168 3.689-1.342-1.019-2.2-2.622-2.378-4.347-.361-3.482-.783-8.611-.783-12.438 0-3.822.419-9.34.783-12.833v-.001c.272-2.655 2.195-5.084 5.01-5.431a101.601 101.601 0 0 1 23.032 0Zm17.054 20.533.567-.028-.099-.559c-.087-.492-.284-1.134-.619-1.903v-.001a17.015 17.015 0 0 0-1.946-3.299c-.798-1.062-1.665-1.96-2.48-2.565-.855-.64-1.425-.792-1.681-.792H307.34l.034.532c.145 2.237.245 4.492.245 6.343 0 .575-.011 1.196-.026 1.85l-.011.483.482.028c3.793.218 7.29.086 10.815-.089Zm-28.911 17.706c0 1.591-.447 2.765-1.223 3.542-.775.777-1.948 1.224-3.539 1.224-1.593 0-2.766-.447-3.541-1.222-.775-.776-1.221-1.95-1.221-3.544 0-1.591.446-2.764 1.221-3.54.775-.775 1.948-1.221 3.541-1.221 1.591 0 2.764.446 3.54 1.222.775.775 1.222 1.948 1.222 3.539Zm24.346 0c0 1.592-.445 2.766-1.221 3.542-.775.777-1.948 1.224-3.541 1.224-1.591 0-2.764-.446-3.539-1.223-.776-.776-1.222-1.95-1.222-3.543 0-1.591.446-2.764 1.222-3.539.775-.776 1.948-1.222 3.539-1.222 1.593 0 2.766.446 3.541 1.221.776.776 1.221 1.949 1.221 3.54Z"/></svg>