<svg xmlns="http://www.w3.org/2000/svg" width="168" height="48" fill="none"><path stroke="#4C4C4C" stroke-linecap="round" stroke-width="4" d="M14 6v6"/><path stroke="#222" stroke-linecap="round" stroke-width="8" d="M10 22v16"/><path stroke="#727272" stroke-linecap="round" stroke-width="4" d="M10 16v22"/><path stroke="#222" stroke-linecap="round" stroke-width="8" d="M38 22v16"/><path stroke="#727272" stroke-linecap="round" stroke-width="4" d="M38 16v22M38 38H10"/><path stroke="#222" stroke-linecap="round" stroke-linejoin="round" stroke-width="8" d="m24 6 17 11"/><path stroke="#727272" stroke-linecap="round" stroke-linejoin="round" stroke-width="4" d="m24 6 17 11"/><path stroke="#222" stroke-linecap="round" stroke-linejoin="round" stroke-width="8" d="M24 6 7 17"/><path stroke="#727272" stroke-linecap="round" stroke-linejoin="round" stroke-width="4" d="M24 6 7 17"/><path stroke="#4C4C4C" stroke-linecap="round" stroke-width="3" d="M41.5 44.5h-35"/><path stroke="#222" stroke-linecap="round" stroke-width="8" d="M24 31v10"/><path stroke="#39ADDF" stroke-linecap="round" stroke-width="4" d="M24 25v16"/><circle cx="24" cy="23" r="4" fill="#39ADDF" stroke="#222" stroke-width="2"/><circle cx="24" cy="23" r="4" fill="#39ADDF" stroke="#222" stroke-width="2"/><g clip-path="url(#a)"><path stroke="#4C4C4C" stroke-linecap="round" stroke-linejoin="round" stroke-width="3" d="M118.5 40.5h47"/><path stroke="#222" stroke-linecap="round" stroke-linejoin="round" stroke-width="2" d="m131 34 14 12M156 34l-8 20"/><path fill="#39ADDF" d="M66 14v-2h-4v2h4Zm-4 16a2 2 0 1 0 4 0h-4Zm0-16v16h4V14h-4Z"/><circle cx="64" cy="12" r="3.5" fill="#39ADDF" stroke="#222"/><path stroke="#39ADDF" stroke-linecap="round" stroke-width="4" d="M84 25v1a4 4 0 0 1-4 4h-4a4 4 0 0 1-4-4v-8a4 4 0 0 1 4-4h4a4 4 0 0 1 4 4v1"/><path stroke="#222" stroke-linecap="round" stroke-width="6" d="M72 15v14"/><path stroke="#39ADDF" stroke-linecap="round" stroke-width="4" d="M72 15v14M91 25v1a4 4 0 0 0 4 4h4a4 4 0 0 0 4-4v-1M103 19v-1a4 4 0 0 0-4-4h-4a4 4 0 0 0-4 4v1"/><path stroke="#39ADDF" stroke-linecap="round" stroke-width="4" d="M99 14h-4a4 4 0 0 0-4 4v8a4 4 0 0 0 4 4h4a4 4 0 0 0 4-4v-8a4 4 0 0 0-4-4Z"/><path stroke="#222" stroke-linecap="round" stroke-width="6" d="M102 30H92M102 14H92"/><path stroke="#39ADDF" stroke-linecap="round" stroke-width="4" d="M102 30H92M102 14H92M112 14v16M122 14v16"/><path stroke="#222" stroke-linecap="round" stroke-width="6" d="m110 16 14 12"/><path stroke="#39ADDF" stroke-linecap="round" stroke-width="4" d="m110 16 14 12"/><path fill="#39ADDF" d="M133 13v-2h-4v2h4Zm-4 17a2 2 0 1 0 4 0h-4Zm0-17v17h4V13h-4Z"/><circle cx="131" cy="12" r="3.5" fill="#39ADDF" stroke="#222"/><path stroke="#39ADDF" stroke-linecap="round" stroke-width="4" d="M139 20h9M141 11h9"/><path stroke="#222" stroke-linecap="round" stroke-width="6" d="M141 12v18"/><path stroke="#39ADDF" stroke-linecap="round" stroke-width="4" d="M141 12v18M164 25l-9-9"/><path stroke="#222" stroke-linecap="round" stroke-width="6" d="m156 34 8-20"/><path stroke="#39ADDF" stroke-linecap="round" stroke-width="4" d="m156 34 8-20"/><circle cx="59" cy="44" r="1" fill="#727272"/><path stroke="#727272" stroke-linejoin="round" stroke-width="1.5" d="M64.5 44.5a4 4 0 0 0 0-8h-2v8h2Z"/><path stroke="#222" stroke-linecap="round" stroke-linejoin="round" stroke-width="3" d="M62.5 36.5v8"/><path stroke="#727272" stroke-linecap="round" stroke-linejoin="round" stroke-width="1.5" d="M62.5 36.5v8M72.5 40.5h4"/><path stroke="#222" stroke-linecap="round" stroke-linejoin="round" stroke-width="3" d="M77.5 36.5h-3a2 2 0 0 0-2 2v4a2 2 0 0 0 2 2h3"/><path stroke="#727272" stroke-linecap="round" stroke-linejoin="round" stroke-width="1.5" d="M77.5 36.5h-3a2 2 0 0 0-2 2v4a2 2 0 0 0 2 2h3"/><path stroke="#727272" stroke-width="1.5" d="M83.5 40.5a2 2 0 1 1 0-4"/><path fill="#727272" d="M83.5 43.75a.75.75 0 0 0 0 1.5v-1.5Zm2.25-1.25c0 .69-.56 1.25-1.25 1.25v1.5a2.75 2.75 0 0 0 2.75-2.75h-1.5Zm-1.25-1.25c.69 0 1.25.56 1.25 1.25h1.5a2.75 2.75 0 0 0-2.75-2.75v1.5Zm0 2.5h-1v1.5h1v-1.5Z"/><path stroke="#727272" stroke-linecap="round" stroke-width="1.5" d="M83.5 44.5a2 2 0 0 1-2-2M86.5 38.5a2 2 0 0 0-2-2h-1"/><path stroke="#727272" stroke-linecap="round" stroke-linejoin="round" stroke-width="1.5" d="M91 37v7.5"/><circle cx="91" cy="36.5" r="1.5" fill="#727272" stroke="#222"/><path stroke="#727272" stroke-linecap="round" stroke-linejoin="round" stroke-width="1.5" d="M101 43.965a4 4 0 1 1 0-6.93"/><path stroke="#222" stroke-linecap="round" stroke-linejoin="round" stroke-width="3" d="M101 41v3"/><path stroke="#727272" stroke-linecap="round" stroke-linejoin="round" stroke-width="1.5" d="M101 44v-2.5h-1"/><path stroke="#727272" stroke-linecap="round" stroke-width="1.5" d="M105.5 36.5v8M110.5 36.5v8"/><path stroke="#222" stroke-linecap="round" stroke-width="3" d="m105.5 36.5 5 8"/><path stroke="#727272" stroke-linecap="round" stroke-width="1.5" d="m105.5 36.5 5 8"/></g><defs><clipPath id="a"><path fill="#fff" d="M48 0h120v48H48z"/></clipPath></defs></svg>