<svg xmlns="http://www.w3.org/2000/svg" width="120" height="48" fill="none"><path stroke="#BFBFBF" stroke-linecap="round" stroke-linejoin="round" stroke-width="3" d="M70.5 40.5h47"/><path stroke="#fff" stroke-linecap="round" stroke-linejoin="round" stroke-width="2" d="m83 34 14 12M108 34l-8 20"/><path fill="#0066C4" d="M18 14v-2h-4v2h4Zm-4 16a2 2 0 1 0 4 0h-4Zm0-16v16h4V14h-4Z"/><circle cx="16" cy="12" r="3.5" fill="#0066C4" stroke="#fff"/><path stroke="#0066C4" stroke-linecap="round" stroke-width="4" d="M36 25v1a4 4 0 0 1-4 4h-4a4 4 0 0 1-4-4v-8a4 4 0 0 1 4-4h4a4 4 0 0 1 4 4v1"/><path stroke="#fff" stroke-linecap="round" stroke-width="6" d="M24 15v14"/><path stroke="#0066C4" stroke-linecap="round" stroke-width="4" d="M24 15v14M43 25v1a4 4 0 0 0 4 4h4a4 4 0 0 0 4-4v-1M55 19v-1a4 4 0 0 0-4-4h-4a4 4 0 0 0-4 4v1"/><path stroke="#0066C4" stroke-linecap="round" stroke-width="4" d="M51 14h-4a4 4 0 0 0-4 4v8a4 4 0 0 0 4 4h4a4 4 0 0 0 4-4v-8a4 4 0 0 0-4-4Z"/><path stroke="#fff" stroke-linecap="round" stroke-width="6" d="M54 30H44M54 14H44"/><path stroke="#0066C4" stroke-linecap="round" stroke-width="4" d="M54 30H44M54 14H44M64 14v16M74 14v16"/><path stroke="#fff" stroke-linecap="round" stroke-width="6" d="m62 16 14 12"/><path stroke="#0066C4" stroke-linecap="round" stroke-width="4" d="m62 16 14 12"/><path fill="#0066C4" d="M85 13v-2h-4v2h4Zm-4 17a2 2 0 1 0 4 0h-4Zm0-17v17h4V13h-4Z"/><circle cx="83" cy="12" r="3.5" fill="#0066C4" stroke="#fff"/><path stroke="#0066C4" stroke-linecap="round" stroke-width="4" d="M91 20h9M93 11h9"/><path stroke="#fff" stroke-linecap="round" stroke-width="6" d="M93 12v18"/><path stroke="#0066C4" stroke-linecap="round" stroke-width="4" d="M93 12v18M116 25l-9-9"/><path stroke="#fff" stroke-linecap="round" stroke-width="6" d="m108 34 8-20"/><path stroke="#0066C4" stroke-linecap="round" stroke-width="4" d="m108 34 8-20"/><circle cx="11" cy="44" r="1" fill="#898989"/><path stroke="#898989" stroke-linejoin="round" stroke-width="1.5" d="M16.5 44.5a4 4 0 0 0 0-8h-2v8h2Z"/><path stroke="#fff" stroke-linecap="round" stroke-linejoin="round" stroke-width="3" d="M14.5 36.5v8"/><path stroke="#898989" stroke-linecap="round" stroke-linejoin="round" stroke-width="1.5" d="M14.5 36.5v8M24.5 40.5h4"/><path stroke="#fff" stroke-linecap="round" stroke-linejoin="round" stroke-width="3" d="M29.5 36.5h-3a2 2 0 0 0-2 2v4a2 2 0 0 0 2 2h3"/><path stroke="#898989" stroke-linecap="round" stroke-linejoin="round" stroke-width="1.5" d="M29.5 36.5h-3a2 2 0 0 0-2 2v4a2 2 0 0 0 2 2h3"/><path stroke="#898989" stroke-width="1.5" d="M35.5 40.5a2 2 0 1 1 0-4"/><path fill="#898989" d="M35.5 43.75a.75.75 0 0 0 0 1.5v-1.5Zm2.25-1.25c0 .69-.56 1.25-1.25 1.25v1.5a2.75 2.75 0 0 0 2.75-2.75h-1.5Zm-1.25-1.25c.69 0 1.25.56 1.25 1.25h1.5a2.75 2.75 0 0 0-2.75-2.75v1.5Zm0 2.5h-1v1.5h1v-1.5Z"/><path stroke="#898989" stroke-linecap="round" stroke-width="1.5" d="M35.5 44.5a2 2 0 0 1-2-2M38.5 38.5a2 2 0 0 0-2-2h-1"/><path stroke="#898989" stroke-linecap="round" stroke-linejoin="round" stroke-width="1.5" d="M43 37v7.5"/><circle cx="43" cy="36.5" r="1.5" fill="#898989" stroke="#fff"/><path stroke="#898989" stroke-linecap="round" stroke-linejoin="round" stroke-width="1.5" d="M53 43.965a4 4 0 1 1 0-6.93"/><path stroke="#fff" stroke-linecap="round" stroke-linejoin="round" stroke-width="3" d="M53 41v3"/><path stroke="#898989" stroke-linecap="round" stroke-linejoin="round" stroke-width="1.5" d="M53 44v-2.5h-1"/><path stroke="#898989" stroke-linecap="round" stroke-width="1.5" d="M57.5 36.5v8M62.5 36.5v8"/><path stroke="#fff" stroke-linecap="round" stroke-width="3" d="m57.5 36.5 5 8"/><path stroke="#898989" stroke-linecap="round" stroke-width="1.5" d="m57.5 36.5 5 8"/></svg>